<svg width="42" height="42" viewBox="0 0 42 42" fill="none" xmlns="http://www.w3.org/2000/svg">
<g filter="url(#filter0_d_4032_32)">
<path fill-rule="evenodd" clip-rule="evenodd" d="M14.4375 8.57226C11.1076 8.57226 8.4082 11.2717 8.4082 14.6016V27.6446C8.4082 30.9744 11.1076 33.6738 14.4375 33.6738H27.6445C30.9744 33.6738 33.6738 30.9744 33.6738 27.6446V14.6016C33.6738 11.2717 30.9744 8.57226 27.6445 8.57226H14.4375ZM5.53711 14.6016C5.53711 9.68601 9.52194 5.70117 14.4375 5.70117H27.6445C32.5601 5.70117 36.5449 9.68601 36.5449 14.6016V27.6446C36.5449 32.5601 32.5601 36.5449 27.6445 36.5449H14.4375C9.52194 36.5449 5.53711 32.5601 5.53711 27.6446V14.6016Z" fill="white"/>
</g>
<g filter="url(#filter1_d_4032_32)">
<path fill-rule="evenodd" clip-rule="evenodd" d="M12.9199 21.2461C12.9199 16.7383 16.5743 13.084 21.082 13.084C25.5898 13.084 29.2441 16.7383 29.2441 21.2461C29.2441 25.7539 25.5899 29.4082 21.082 29.4082C16.5742 29.4082 12.9199 25.7539 12.9199 21.2461ZM21.082 15.9551C18.1599 15.9551 15.791 18.3239 15.791 21.2461C15.791 24.1682 18.1599 26.5371 21.082 26.5371C24.0042 26.5371 26.373 24.1682 26.373 21.2461C26.373 18.3239 24.0042 15.9551 21.082 15.9551Z" fill="white"/>
</g>
<g filter="url(#filter2_d_4032_32)">
<path fill-rule="evenodd" clip-rule="evenodd" d="M29.3262 14.8477C30.4135 14.8477 31.2949 13.9662 31.2949 12.8789C31.2949 11.7916 30.4135 10.9102 29.3262 10.9102C28.2389 10.9102 27.3574 11.7916 27.3574 12.8789C27.3574 13.9662 28.2389 14.8477 29.3262 14.8477Z" fill="white"/>
</g>
<defs>
<filter id="filter0_d_4032_32" x="3.53711" y="3.70117" width="35.0078" height="34.8438" filterUnits="userSpaceOnUse" color-interpolation-filters="sRGB">
<feFlood flood-opacity="0" result="BackgroundImageFix"/>
<feColorMatrix in="SourceAlpha" type="matrix" values="0 0 0 0 0 0 0 0 0 0 0 0 0 0 0 0 0 0 127 0" result="hardAlpha"/>
<feOffset/>
<feGaussianBlur stdDeviation="1"/>
<feColorMatrix type="matrix" values="0 0 0 0 0 0 0 0 0 0 0 0 0 0 0 0 0 0 0.130633 0"/>
<feBlend mode="normal" in2="BackgroundImageFix" result="effect1_dropShadow_4032_32"/>
<feBlend mode="normal" in="SourceGraphic" in2="effect1_dropShadow_4032_32" result="shape"/>
</filter>
<filter id="filter1_d_4032_32" x="10.9199" y="11.084" width="20.3242" height="20.3242" filterUnits="userSpaceOnUse" color-interpolation-filters="sRGB">
<feFlood flood-opacity="0" result="BackgroundImageFix"/>
<feColorMatrix in="SourceAlpha" type="matrix" values="0 0 0 0 0 0 0 0 0 0 0 0 0 0 0 0 0 0 127 0" result="hardAlpha"/>
<feOffset/>
<feGaussianBlur stdDeviation="1"/>
<feColorMatrix type="matrix" values="0 0 0 0 0 0 0 0 0 0 0 0 0 0 0 0 0 0 0.130633 0"/>
<feBlend mode="normal" in2="BackgroundImageFix" result="effect1_dropShadow_4032_32"/>
<feBlend mode="normal" in="SourceGraphic" in2="effect1_dropShadow_4032_32" result="shape"/>
</filter>
<filter id="filter2_d_4032_32" x="25.3574" y="8.91016" width="7.9375" height="7.9375" filterUnits="userSpaceOnUse" color-interpolation-filters="sRGB">
<feFlood flood-opacity="0" result="BackgroundImageFix"/>
<feColorMatrix in="SourceAlpha" type="matrix" values="0 0 0 0 0 0 0 0 0 0 0 0 0 0 0 0 0 0 127 0" result="hardAlpha"/>
<feOffset/>
<feGaussianBlur stdDeviation="1"/>
<feColorMatrix type="matrix" values="0 0 0 0 0 0 0 0 0 0 0 0 0 0 0 0 0 0 0.130633 0"/>
<feBlend mode="normal" in2="BackgroundImageFix" result="effect1_dropShadow_4032_32"/>
<feBlend mode="normal" in="SourceGraphic" in2="effect1_dropShadow_4032_32" result="shape"/>
</filter>
</defs>
</svg>
