<svg width="42" height="42" viewBox="0 0 42 42" fill="none" xmlns="http://www.w3.org/2000/svg">
<path fill-rule="evenodd" clip-rule="evenodd" d="M26.5126 5.17188C27.0219 9.54323 29.6298 12.6269 33.8373 12.9016V17.0463V13.5265C29.6024 13.2553 27.1791 10.6455 26.6596 6.27759H22.2162V24.6661C22.8622 32.9452 16.4433 33.1925 13.9857 30.0539C16.85 31.8636 21.5326 30.6857 20.9721 23.5638V5.17188H26.5126ZM14.5087 35.6615C13.2466 35.4104 12.0487 34.9037 10.988 34.1722C9.92729 33.4408 9.02605 32.4998 8.33925 31.4069C5.06483 26.0259 8.01796 17.2523 17.5165 16.3492V17.6438C8.69472 19.0551 7.80946 28.5567 10.2533 32.5126C11.2491 34.0432 12.7614 35.1613 14.5121 35.6615H14.5087Z" fill="white"/>
<path fill-rule="evenodd" clip-rule="evenodd" d="M26.6723 6.26636C27.1816 10.6446 29.6084 13.2475 33.8261 13.5188V18.4327C31.3789 18.673 29.2358 17.8661 26.7407 16.3723V25.5443C26.7612 37.5354 13.9233 38.4592 10.2661 32.5013C7.82906 28.5489 8.71431 19.0439 17.519 17.636V22.6255C15.4682 22.9688 14.3471 23.6007 13.7353 24.7751C9.97554 32.0275 23.1279 36.3439 22.2187 24.6583V6.26636H26.6723Z" fill="white"/>
</svg>
