<svg width="24" height="24" viewBox="0 0 24 24" fill="none" xmlns="http://www.w3.org/2000/svg">
<path fill-rule="evenodd" clip-rule="evenodd" d="M20.3684 3.48228C19.2685 2.37439 17.9595 1.49604 16.5174 0.89826C15.0753 0.300476 13.5288 -0.00483516 11.9677 5.78949e-05C5.42774 5.78949e-05 0.0991214 5.32594 0.0991214 11.8734C0.0972576 13.9567 0.644259 16.0037 1.68506 17.8084L0 23.9607L6.29453 22.3085C8.03519 23.2573 9.98588 23.7549 11.9684 23.7556H11.9731C18.5172 23.7556 23.8465 18.4297 23.8465 11.8823C23.85 10.322 23.5443 8.77642 22.947 7.33498C22.3496 5.89353 21.4725 4.58477 20.3663 3.48434L20.3684 3.48228ZM11.9711 21.7568C10.2027 21.7571 8.46671 21.2816 6.94531 20.38L6.58369 20.1647L2.84854 21.1416L3.8459 17.5001L3.61211 17.1261C2.62047 15.5547 2.09626 13.7336 2.10068 11.8754C2.10068 6.43131 6.52832 2.00094 11.9766 2.00094C13.273 2.00112 14.5567 2.25678 15.7543 2.75332C16.9519 3.24987 18.0399 3.97755 18.9561 4.89478C19.8723 5.81201 20.5988 6.90081 21.094 8.09894C21.5892 9.29708 21.8434 10.5811 21.8422 11.8775C21.8374 17.3237 17.4105 21.7527 11.9704 21.7527L11.9711 21.7568ZM17.3817 14.3603C17.0864 14.2099 15.6263 13.4942 15.3549 13.3951C15.0835 13.296 14.8866 13.2454 14.685 13.5455C14.4833 13.8456 13.918 14.51 13.7443 14.7076C13.5707 14.9051 13.3984 14.9325 13.1038 14.7821C12.8092 14.6317 11.8494 14.3193 10.7167 13.3083C9.83623 12.5221 9.23946 11.5487 9.06582 11.2575C8.89219 10.9663 9.046 10.7988 9.19707 10.6539C9.33379 10.5219 9.49238 10.308 9.64209 10.1343C9.7918 9.9607 9.83897 9.83902 9.9374 9.63805C10.0358 9.43707 9.98799 9.26754 9.91348 9.11852C9.83897 8.96949 9.24356 7.50865 9.00156 6.91393C8.76299 6.33219 8.51485 6.41353 8.33233 6.40328C8.14981 6.39303 7.96182 6.39439 7.76563 6.39439C7.61546 6.39842 7.46774 6.43334 7.33167 6.49696C7.19559 6.56059 7.07408 6.65157 6.97471 6.76422C6.70127 7.05953 5.93565 7.78004 5.93565 9.2402C5.93565 10.7004 6.99795 12.1113 7.14697 12.3102C7.296 12.5091 9.23946 15.5067 12.2151 16.7905C12.922 17.094 13.4743 17.2765 13.905 17.418C14.5102 17.6004 15.1493 17.6404 15.7726 17.5349C16.3434 17.4508 17.528 16.8178 17.7762 16.1254C18.0243 15.4329 18.0243 14.8381 17.9505 14.7158C17.8767 14.5934 17.6832 14.5107 17.3838 14.3589L17.3817 14.3603Z" fill="white"/>
</svg>
